<?xml version="1.0" encoding="UTF-8" standalone="no"?>
<svg
   version="1.1"
   id="Layer_1"
   x="0px"
   y="0px"
   width="160000"
   viewBox="0 0 160000 82944"
   enable-background="new 0 0 400 288"
   xml:space="preserve"
   sodipodi:docname="GPL3 logo.svg"
   inkscape:export-filename="GPL3 logo.png"
   inkscape:export-xdpi="96"
   inkscape:export-ydpi="96"
   height="82944"
   xmlns:inkscape="http://www.inkscape.org/namespaces/inkscape"
   xmlns:sodipodi="http://sodipodi.sourceforge.net/DTD/sodipodi-0.dtd"
   xmlns="http://www.w3.org/2000/svg"
   xmlns:svg="http://www.w3.org/2000/svg"><defs
   id="defs7" /><sodipodi:namedview
   id="namedview5"
   pagecolor="#ffffff"
   bordercolor="#000000"
   borderopacity="0.25"
   inkscape:showpageshadow="2"
   inkscape:pageopacity="0.0"
   inkscape:pagecheckerboard="0"
   inkscape:deskcolor="#d1d1d1"
   showgrid="false" />
<path
   fill="#000000"
   opacity="1"
   stroke="none"
   d="m 116.74986,211.46037 c -21.525197,-8.64435 -33.075925,-24.44004 -35.765248,-46.91264 -0.404,-3.37589 -0.436333,-6.79141 2.596511,-9.15473 2.245949,-1.75012 4.787644,-2.20439 7.502495,-0.89958 3.11583,1.49755 4.135605,4.16063 4.191277,7.35944 0.140838,8.09233 2.746689,15.38376 7.436585,21.88 14.41658,19.96927 42.30219,22.45606 59.82519,5.14086 21.3332,-21.08022 42.55949,-42.27234 63.5794,-63.66429 10.60868,-10.79646 22.9776,-17.37984 38.13985,-18.52362 0.60574,-0.0457 1.19125,-0.35939 2.38049,-0.73683 -5.25158,-8.809095 -12.87187,-13.958822 -22.01333,-16.403356 -13.58274,-3.632164 -26.07939,-0.795983 -36.84995,8.491287 -5.26739,4.541979 -8.05968,4.652829 -13.46414,0.169357 -19.12502,-15.865783 -45.53758,-12.710228 -59.08942,7.197252 -6.73866,9.89905 -8.50782,20.78063 -5.60008,32.43312 0.83211,3.33461 2.43681,4.88205 6.21718,4.96438 10.39989,0.22654 18.63081,10.00023 17.15268,19.82454 -1.61682,10.74602 -11.60875,18.1165 -21.50096,15.86 -10.93038,-2.4933 -17.29052,-12.81015 -13.90384,-23.04978 1.06486,-3.21956 0.94883,-5.96112 -0.14983,-9.12874 -10.65375,-30.71659 5.21802,-61.759372 36.3425,-70.503825 15.342,-4.310348 30.06983,-1.795715 43.53407,6.755966 2.89837,1.840859 4.72118,1.643425 7.49309,-0.13063 27.92836,-17.874588 64.80002,-6.966057 78.43131,23.197009 1.33847,2.96176 3.11017,4.6757 6.03076,6.04441 19.75824,9.25959 29.84598,25.26123 31.76947,46.6893 0.48044,5.35211 -2.40375,9.04689 -6.82053,9.32472 -4.48028,0.28183 -7.12091,-2.90294 -7.55377,-8.5296 -1.27719,-16.60259 -9.34189,-28.74687 -24.84351,-35.01363 -15.50595,-6.26851 -30.08215,-3.48466 -42.05548,8.07663 -19.65405,18.97769 -38.70428,38.5798 -58.09634,57.83078 -2.5708,2.5521 -2.77446,4.49338 -0.12244,7.05313 5.63308,5.43708 11.15697,10.99074 16.61231,16.60669 2.13446,2.19728 3.74986,1.9843 5.82672,-0.10698 14.44116,-14.54126 28.93985,-29.02556 43.47139,-43.47656 1.86438,-1.85406 2.17251,-3.66617 1.65472,-6.26552 -1.59871,-8.0258 2.46512,-15.66821 9.90645,-19.44353 6.82669,-3.4635 15.32453,-2.08361 20.77912,3.37414 5.76461,5.76794 7.07547,13.99871 3.37066,21.16432 -3.62021,7.00195 -11.33352,11.0654 -19.1293,9.58899 -3.27826,-0.62085 -5.29453,0.51085 -7.44583,2.67508 -16.09207,16.18891 -32.25708,32.30542 -48.41628,48.42753 -5.78497,5.7717 -8.74933,5.7228 -14.58868,-0.10681 -7.42888,-7.41649 -14.94736,-14.74573 -22.25763,-22.27718 -2.66214,-2.7427 -4.7563,-2.98658 -8.14195,-0.88897 -14.45591,8.95622 -29.93282,10.28915 -46.43569,5.08787 z"
   id="path2"
   style="fill:#53b741;fill-opacity:1" />
</svg>
