<?xml version="1.0" encoding="UTF-8" standalone="no"?>
<svg
   version="1.1"
   id="Layer_1"
   x="0px"
   y="0px"
   width="160000"
   viewBox="0 0 160000 82944"
   enableBackground="new 0 0 400 288"
   xmlSpace="preserve"
   sodipodiDocname="GPL3 logo.svg"
   inkscapeExportFilename="GPL3 logo400x288.svg"
   inkscapeExportXdpi="96"
   inkscapeExportYdpi="96"
   height="82944"
   xmlnsInkscape="http://www.inkscape.org/namespaces/inkscape"
   xmlnsIsodipodi="http://sodipodi.sourceforge.net/DTD/sodipodi-0.dtd"
   xmlns="http://www.w3.org/2000/svg"
   xmlnsIsvg="http://www.w3.org/2000/svg"><defs
   id="defs7" /><sodipodi:namedview
   id="namedview5"
   pagecolor="#ffffff"
   bordercolor="#000000"
   borderopacity="0.25"
   inkscapeShowpageshadow="2"
   inkscapePageopacity="0.0"
   inkscapePagecheckerboard="0"
   inkscapeDeskcolor="#d1d1d1"
   showgrid="false" />
<path
   fill="#000000"
   opacity="1"
   stroke="none"
   d="m 155.53431,162.29845 c -9.38844,-3.77032 -14.42642,-10.65979 -15.5994,-20.46145 -0.17621,-1.47243 -0.19031,-2.96215 1.1325,-3.99293 0.9796,-0.76334 2.08818,-0.96147 3.27229,-0.39237 1.35901,0.65317 1.80379,1.81471 1.82808,3.2099 0.0614,3.52956 1.19799,6.70979 3.24354,9.5432 6.28795,8.70981 18.45056,9.79445 26.09341,2.24224 9.3047,-9.19436 18.56278,-18.43754 27.73084,-27.76787 4.62709,-4.70899 10.02193,-7.5804 16.63511,-8.07928 0.2642,-0.0199 0.51957,-0.15675 1.03827,-0.32137 -2.29053,-3.84218 -5.6142,-6.08829 -9.60135,-7.1545 -5.92426,-1.58421 -11.37481,-0.34718 -16.0725,3.70357 -2.29743,1.98103 -3.51532,2.02937 -5.87253,0.0739 -8.34158,-6.92003 -19.86171,-5.5437 -25.77249,3.13916 -2.93914,4.31758 -3.71078,9.0637 -2.44254,14.14606 0.36294,1.45442 1.06285,2.12936 2.71169,2.16527 4.53603,0.0988 8.12603,4.36171 7.48133,8.64668 -0.70519,4.687 -5.06328,7.90171 -9.37788,6.91751 -4.7674,-1.08748 -7.54145,-5.58728 -6.06431,-10.05341 0.46445,-1.40425 0.41384,-2.60001 -0.0653,-3.9816 -4.64675,-13.39737 2.2759,-26.93701 15.85118,-30.751 6.69158,-1.88001 13.11528,-0.78322 18.98786,2.94669 1.26415,0.80291 2.05919,0.71679 3.26819,-0.057 12.18125,-7.796189 28.26322,-3.03832 34.20866,10.11763 0.58379,1.2918 1.35653,2.03935 2.63038,2.63633 8.61777,4.03867 13.01764,11.01796 13.8566,20.36404 0.20954,2.33438 -1.04842,3.9459 -2.97485,4.06708 -1.95412,0.12292 -3.10586,-1.26615 -3.29466,-3.72028 -0.55706,-7.24139 -4.07456,-12.53826 -10.83576,-15.27157 -6.76309,-2.73408 -13.12066,-1.51987 -18.34295,3.52271 -8.57233,8.27733 -16.8813,16.827 -25.33935,25.22352 -1.12128,1.11312 -1.21011,1.95984 -0.0534,3.0763 2.45692,2.37144 4.86623,4.79373 7.24563,7.24319 0.93097,0.95836 1.63554,0.86547 2.54139,-0.0467 6.29867,-6.34233 12.62243,-12.65981 18.96052,-18.96278 0.81316,-0.80867 0.94756,-1.59903 0.72172,-2.73277 -0.69729,-3.50054 1.07519,-6.83386 4.32081,-8.4805 2.97753,-1.51065 6.68395,-0.9088 9.06303,1.47166 2.5143,2.51575 3.08604,6.10569 1.47015,9.23105 -1.57899,3.05398 -4.94324,4.82629 -8.34345,4.18234 -1.42985,-0.27079 -2.30926,0.22281 -3.24758,1.16676 -7.01873,7.06098 -14.06927,14.09036 -21.11728,21.1222 -2.52318,2.51738 -3.81611,2.49605 -6.36301,-0.0466 -3.24019,-3.23478 -6.51945,-6.43151 -9.70791,-9.71643 -1.16112,-1.19626 -2.07451,-1.30263 -3.5512,-0.38774 -6.3051,3.90635 -13.05552,4.48773 -20.25343,2.21913 z"
   id="path2"
   style="fill:#53b741;fill-opacity:1;stroke-width:0.436161" />
</svg>
